<mxfile host="app.diagrams.net" modified="2021-11-19T10:16:16.845Z" agent="5.0 (Windows NT 10.0; Win64; x64) AppleWebKit/537.36 (KHTML, like Gecko) Chrome/95.0.4638.69 Safari/537.36" etag="fGUnCNPoLhjRtpked0eC" version="15.5.9" type="github">
  <diagram id="0KvYnWQQAFxINkN0dP19" name="Page-1">
    <mxGraphModel dx="2844" dy="1524" grid="1" gridSize="10" guides="1" tooltips="1" connect="1" arrows="1" fold="1" page="1" pageScale="1" pageWidth="850" pageHeight="1100" math="0" shadow="0">
      <root>
        <mxCell id="0" />
        <mxCell id="1" parent="0" />
        <mxCell id="_l61PSPyeLfWnxNzywPb-7" style="edgeStyle=orthogonalEdgeStyle;rounded=0;orthogonalLoop=1;jettySize=auto;html=1;exitX=0.5;exitY=1;exitDx=0;exitDy=0;" edge="1" parent="1" source="_l61PSPyeLfWnxNzywPb-2">
          <mxGeometry relative="1" as="geometry">
            <mxPoint x="400" y="190" as="targetPoint" />
          </mxGeometry>
        </mxCell>
        <mxCell id="_l61PSPyeLfWnxNzywPb-2" value="Start" style="rounded=1;whiteSpace=wrap;html=1;" vertex="1" parent="1">
          <mxGeometry x="340" y="100" width="120" height="30" as="geometry" />
        </mxCell>
        <mxCell id="_l61PSPyeLfWnxNzywPb-6" style="edgeStyle=orthogonalEdgeStyle;rounded=0;orthogonalLoop=1;jettySize=auto;html=1;exitX=0.5;exitY=1;exitDx=0;exitDy=0;" edge="1" parent="1" target="_l61PSPyeLfWnxNzywPb-5">
          <mxGeometry relative="1" as="geometry">
            <mxPoint x="400" y="220" as="sourcePoint" />
          </mxGeometry>
        </mxCell>
        <mxCell id="_l61PSPyeLfWnxNzywPb-8" style="edgeStyle=orthogonalEdgeStyle;rounded=0;orthogonalLoop=1;jettySize=auto;html=1;exitX=1;exitY=0.5;exitDx=0;exitDy=0;" edge="1" parent="1" source="_l61PSPyeLfWnxNzywPb-31">
          <mxGeometry relative="1" as="geometry">
            <mxPoint x="610" y="240" as="targetPoint" />
            <mxPoint x="490" y="215" as="sourcePoint" />
            <Array as="points">
              <mxPoint x="610" y="205" />
            </Array>
          </mxGeometry>
        </mxCell>
        <mxCell id="_l61PSPyeLfWnxNzywPb-21" style="edgeStyle=orthogonalEdgeStyle;rounded=0;orthogonalLoop=1;jettySize=auto;html=1;exitX=0.5;exitY=1;exitDx=0;exitDy=0;startArrow=none;" edge="1" parent="1" source="_l61PSPyeLfWnxNzywPb-33" target="_l61PSPyeLfWnxNzywPb-18">
          <mxGeometry relative="1" as="geometry" />
        </mxCell>
        <mxCell id="_l61PSPyeLfWnxNzywPb-24" style="edgeStyle=orthogonalEdgeStyle;rounded=0;orthogonalLoop=1;jettySize=auto;html=1;exitX=0.5;exitY=1;exitDx=0;exitDy=0;entryX=0.461;entryY=-0.067;entryDx=0;entryDy=0;entryPerimeter=0;startArrow=none;" edge="1" parent="1" source="_l61PSPyeLfWnxNzywPb-33" target="_l61PSPyeLfWnxNzywPb-23">
          <mxGeometry relative="1" as="geometry">
            <Array as="points">
              <mxPoint x="400" y="390" />
              <mxPoint x="163" y="390" />
            </Array>
          </mxGeometry>
        </mxCell>
        <mxCell id="_l61PSPyeLfWnxNzywPb-36" value="" style="edgeStyle=orthogonalEdgeStyle;rounded=0;orthogonalLoop=1;jettySize=auto;html=1;" edge="1" parent="1" source="_l61PSPyeLfWnxNzywPb-5" target="_l61PSPyeLfWnxNzywPb-33">
          <mxGeometry relative="1" as="geometry" />
        </mxCell>
        <mxCell id="_l61PSPyeLfWnxNzywPb-5" value="Buka Aplikasi Gojek" style="rounded=0;whiteSpace=wrap;html=1;" vertex="1" parent="1">
          <mxGeometry x="310" y="310" width="180" height="30" as="geometry" />
        </mxCell>
        <mxCell id="_l61PSPyeLfWnxNzywPb-10" value="Jika Sudah Download" style="text;html=1;align=center;verticalAlign=middle;resizable=0;points=[];autosize=1;strokeColor=none;fillColor=none;" vertex="1" parent="1">
          <mxGeometry x="220" y="260" width="130" height="20" as="geometry" />
        </mxCell>
        <mxCell id="_l61PSPyeLfWnxNzywPb-11" value="Belum Download?" style="text;html=1;align=center;verticalAlign=middle;resizable=0;points=[];autosize=1;strokeColor=none;fillColor=none;" vertex="1" parent="1">
          <mxGeometry x="540" y="180" width="110" height="20" as="geometry" />
        </mxCell>
        <mxCell id="_l61PSPyeLfWnxNzywPb-16" style="edgeStyle=orthogonalEdgeStyle;rounded=0;orthogonalLoop=1;jettySize=auto;html=1;exitX=0.5;exitY=1;exitDx=0;exitDy=0;entryX=0.5;entryY=0;entryDx=0;entryDy=0;" edge="1" parent="1" source="_l61PSPyeLfWnxNzywPb-12" target="_l61PSPyeLfWnxNzywPb-15">
          <mxGeometry relative="1" as="geometry" />
        </mxCell>
        <mxCell id="_l61PSPyeLfWnxNzywPb-12" value="Buka Play Store" style="rounded=0;whiteSpace=wrap;html=1;" vertex="1" parent="1">
          <mxGeometry x="550" y="240" width="120" height="30" as="geometry" />
        </mxCell>
        <mxCell id="_l61PSPyeLfWnxNzywPb-17" style="edgeStyle=orthogonalEdgeStyle;rounded=0;orthogonalLoop=1;jettySize=auto;html=1;exitX=0;exitY=0.5;exitDx=0;exitDy=0;entryX=1;entryY=0.5;entryDx=0;entryDy=0;" edge="1" parent="1" source="_l61PSPyeLfWnxNzywPb-15" target="_l61PSPyeLfWnxNzywPb-5">
          <mxGeometry relative="1" as="geometry" />
        </mxCell>
        <mxCell id="_l61PSPyeLfWnxNzywPb-15" value="Download Aplikasi Gojek" style="rounded=0;whiteSpace=wrap;html=1;" vertex="1" parent="1">
          <mxGeometry x="550" y="310" width="120" height="30" as="geometry" />
        </mxCell>
        <mxCell id="_l61PSPyeLfWnxNzywPb-27" style="edgeStyle=orthogonalEdgeStyle;rounded=0;orthogonalLoop=1;jettySize=auto;html=1;exitX=0.5;exitY=1;exitDx=0;exitDy=0;entryX=0.5;entryY=0;entryDx=0;entryDy=0;" edge="1" parent="1" source="_l61PSPyeLfWnxNzywPb-18" target="_l61PSPyeLfWnxNzywPb-26">
          <mxGeometry relative="1" as="geometry" />
        </mxCell>
        <mxCell id="_l61PSPyeLfWnxNzywPb-18" value="Login" style="rounded=0;whiteSpace=wrap;html=1;" vertex="1" parent="1">
          <mxGeometry x="310" y="440" width="180" height="30" as="geometry" />
        </mxCell>
        <mxCell id="_l61PSPyeLfWnxNzywPb-25" style="edgeStyle=orthogonalEdgeStyle;rounded=0;orthogonalLoop=1;jettySize=auto;html=1;entryX=0;entryY=0.5;entryDx=0;entryDy=0;" edge="1" parent="1" source="_l61PSPyeLfWnxNzywPb-23" target="_l61PSPyeLfWnxNzywPb-18">
          <mxGeometry relative="1" as="geometry" />
        </mxCell>
        <mxCell id="_l61PSPyeLfWnxNzywPb-23" value="Registrasi" style="rounded=0;whiteSpace=wrap;html=1;" vertex="1" parent="1">
          <mxGeometry x="80" y="440" width="180" height="30" as="geometry" />
        </mxCell>
        <mxCell id="_l61PSPyeLfWnxNzywPb-29" style="edgeStyle=orthogonalEdgeStyle;rounded=0;orthogonalLoop=1;jettySize=auto;html=1;exitX=0.5;exitY=1;exitDx=0;exitDy=0;entryX=0.5;entryY=0;entryDx=0;entryDy=0;" edge="1" parent="1" source="_l61PSPyeLfWnxNzywPb-26" target="_l61PSPyeLfWnxNzywPb-28">
          <mxGeometry relative="1" as="geometry" />
        </mxCell>
        <mxCell id="_l61PSPyeLfWnxNzywPb-26" value="Pilih Menu Go Food" style="rounded=0;whiteSpace=wrap;html=1;" vertex="1" parent="1">
          <mxGeometry x="310" y="500" width="180" height="30" as="geometry" />
        </mxCell>
        <mxCell id="_l61PSPyeLfWnxNzywPb-37" style="edgeStyle=orthogonalEdgeStyle;rounded=0;orthogonalLoop=1;jettySize=auto;html=1;exitX=0.5;exitY=1;exitDx=0;exitDy=0;entryX=0.5;entryY=0;entryDx=0;entryDy=0;" edge="1" parent="1" source="_l61PSPyeLfWnxNzywPb-28" target="_l61PSPyeLfWnxNzywPb-30">
          <mxGeometry relative="1" as="geometry" />
        </mxCell>
        <mxCell id="_l61PSPyeLfWnxNzywPb-28" value="Cari Resto/Tempat Makanan" style="rounded=0;whiteSpace=wrap;html=1;" vertex="1" parent="1">
          <mxGeometry x="310" y="550" width="180" height="30" as="geometry" />
        </mxCell>
        <mxCell id="_l61PSPyeLfWnxNzywPb-41" style="edgeStyle=orthogonalEdgeStyle;rounded=0;orthogonalLoop=1;jettySize=auto;html=1;exitX=0.5;exitY=1;exitDx=0;exitDy=0;entryX=0.5;entryY=0;entryDx=0;entryDy=0;" edge="1" parent="1" source="_l61PSPyeLfWnxNzywPb-30" target="_l61PSPyeLfWnxNzywPb-38">
          <mxGeometry relative="1" as="geometry" />
        </mxCell>
        <mxCell id="_l61PSPyeLfWnxNzywPb-30" value="Pilih Menu dan Jumlah makanan" style="rounded=0;whiteSpace=wrap;html=1;" vertex="1" parent="1">
          <mxGeometry x="290" y="600" width="220" height="30" as="geometry" />
        </mxCell>
        <mxCell id="_l61PSPyeLfWnxNzywPb-31" value="Download Check" style="shape=parallelogram;perimeter=parallelogramPerimeter;whiteSpace=wrap;html=1;fixedSize=1;" vertex="1" parent="1">
          <mxGeometry x="330" y="190" width="140" height="30" as="geometry" />
        </mxCell>
        <mxCell id="_l61PSPyeLfWnxNzywPb-33" value="Otentikasi" style="shape=parallelogram;perimeter=parallelogramPerimeter;whiteSpace=wrap;html=1;fixedSize=1;" vertex="1" parent="1">
          <mxGeometry x="340" y="370" width="120" height="40" as="geometry" />
        </mxCell>
        <mxCell id="_l61PSPyeLfWnxNzywPb-43" value="" style="edgeStyle=orthogonalEdgeStyle;rounded=0;orthogonalLoop=1;jettySize=auto;html=1;" edge="1" parent="1" source="_l61PSPyeLfWnxNzywPb-38" target="_l61PSPyeLfWnxNzywPb-42">
          <mxGeometry relative="1" as="geometry" />
        </mxCell>
        <mxCell id="_l61PSPyeLfWnxNzywPb-38" value="Masukan Alamat Pengiriman" style="rounded=0;whiteSpace=wrap;html=1;" vertex="1" parent="1">
          <mxGeometry x="290" y="650" width="220" height="30" as="geometry" />
        </mxCell>
        <mxCell id="_l61PSPyeLfWnxNzywPb-45" style="edgeStyle=orthogonalEdgeStyle;rounded=0;orthogonalLoop=1;jettySize=auto;html=1;exitX=0.5;exitY=1;exitDx=0;exitDy=0;entryX=0.5;entryY=0;entryDx=0;entryDy=0;" edge="1" parent="1" source="_l61PSPyeLfWnxNzywPb-42" target="_l61PSPyeLfWnxNzywPb-44">
          <mxGeometry relative="1" as="geometry" />
        </mxCell>
        <mxCell id="_l61PSPyeLfWnxNzywPb-42" value="Periksa Kembali Pesanan" style="rounded=0;whiteSpace=wrap;html=1;" vertex="1" parent="1">
          <mxGeometry x="290" y="700" width="220" height="30" as="geometry" />
        </mxCell>
        <mxCell id="_l61PSPyeLfWnxNzywPb-47" style="edgeStyle=orthogonalEdgeStyle;rounded=0;orthogonalLoop=1;jettySize=auto;html=1;exitX=1;exitY=0.5;exitDx=0;exitDy=0;entryX=0;entryY=0.5;entryDx=0;entryDy=0;" edge="1" parent="1" source="_l61PSPyeLfWnxNzywPb-44" target="_l61PSPyeLfWnxNzywPb-46">
          <mxGeometry relative="1" as="geometry" />
        </mxCell>
        <mxCell id="_l61PSPyeLfWnxNzywPb-58" style="edgeStyle=orthogonalEdgeStyle;rounded=0;orthogonalLoop=1;jettySize=auto;html=1;exitX=0.5;exitY=1;exitDx=0;exitDy=0;entryX=0.5;entryY=0;entryDx=0;entryDy=0;" edge="1" parent="1" source="_l61PSPyeLfWnxNzywPb-44" target="_l61PSPyeLfWnxNzywPb-49">
          <mxGeometry relative="1" as="geometry" />
        </mxCell>
        <mxCell id="_l61PSPyeLfWnxNzywPb-44" value="Bayar Pakai Gopay?" style="rhombus;whiteSpace=wrap;html=1;" vertex="1" parent="1">
          <mxGeometry x="310" y="750" width="180" height="100" as="geometry" />
        </mxCell>
        <mxCell id="_l61PSPyeLfWnxNzywPb-57" style="edgeStyle=orthogonalEdgeStyle;rounded=0;orthogonalLoop=1;jettySize=auto;html=1;exitX=0.5;exitY=1;exitDx=0;exitDy=0;" edge="1" parent="1" source="_l61PSPyeLfWnxNzywPb-46" target="_l61PSPyeLfWnxNzywPb-50">
          <mxGeometry relative="1" as="geometry" />
        </mxCell>
        <mxCell id="_l61PSPyeLfWnxNzywPb-46" value="Bayar Cash" style="rounded=0;whiteSpace=wrap;html=1;" vertex="1" parent="1">
          <mxGeometry x="550" y="785" width="180" height="30" as="geometry" />
        </mxCell>
        <mxCell id="_l61PSPyeLfWnxNzywPb-48" style="edgeStyle=orthogonalEdgeStyle;rounded=0;orthogonalLoop=1;jettySize=auto;html=1;exitX=0.5;exitY=1;exitDx=0;exitDy=0;" edge="1" parent="1" source="_l61PSPyeLfWnxNzywPb-44" target="_l61PSPyeLfWnxNzywPb-44">
          <mxGeometry relative="1" as="geometry" />
        </mxCell>
        <mxCell id="_l61PSPyeLfWnxNzywPb-59" style="edgeStyle=orthogonalEdgeStyle;rounded=0;orthogonalLoop=1;jettySize=auto;html=1;exitX=0.5;exitY=1;exitDx=0;exitDy=0;entryX=0.5;entryY=0;entryDx=0;entryDy=0;" edge="1" parent="1" source="_l61PSPyeLfWnxNzywPb-49" target="_l61PSPyeLfWnxNzywPb-51">
          <mxGeometry relative="1" as="geometry" />
        </mxCell>
        <mxCell id="_l61PSPyeLfWnxNzywPb-49" value="Membuat Pesanan" style="rounded=0;whiteSpace=wrap;html=1;" vertex="1" parent="1">
          <mxGeometry x="290" y="880" width="220" height="30" as="geometry" />
        </mxCell>
        <mxCell id="_l61PSPyeLfWnxNzywPb-56" style="edgeStyle=orthogonalEdgeStyle;rounded=0;orthogonalLoop=1;jettySize=auto;html=1;exitX=0.5;exitY=1;exitDx=0;exitDy=0;" edge="1" parent="1" source="_l61PSPyeLfWnxNzywPb-50" target="_l61PSPyeLfWnxNzywPb-52">
          <mxGeometry relative="1" as="geometry" />
        </mxCell>
        <mxCell id="_l61PSPyeLfWnxNzywPb-50" value="Membuat Pesanan" style="rounded=0;whiteSpace=wrap;html=1;" vertex="1" parent="1">
          <mxGeometry x="530" y="880" width="220" height="30" as="geometry" />
        </mxCell>
        <mxCell id="_l61PSPyeLfWnxNzywPb-60" style="edgeStyle=orthogonalEdgeStyle;rounded=0;orthogonalLoop=1;jettySize=auto;html=1;exitX=0.5;exitY=1;exitDx=0;exitDy=0;entryX=0.5;entryY=0;entryDx=0;entryDy=0;" edge="1" parent="1" source="_l61PSPyeLfWnxNzywPb-51" target="_l61PSPyeLfWnxNzywPb-53">
          <mxGeometry relative="1" as="geometry" />
        </mxCell>
        <mxCell id="_l61PSPyeLfWnxNzywPb-51" value="Menunggu Kurir" style="rounded=0;whiteSpace=wrap;html=1;" vertex="1" parent="1">
          <mxGeometry x="290" y="930" width="220" height="30" as="geometry" />
        </mxCell>
        <mxCell id="_l61PSPyeLfWnxNzywPb-61" style="edgeStyle=orthogonalEdgeStyle;rounded=0;orthogonalLoop=1;jettySize=auto;html=1;exitX=0.5;exitY=1;exitDx=0;exitDy=0;entryX=0.5;entryY=0;entryDx=0;entryDy=0;" edge="1" parent="1" source="_l61PSPyeLfWnxNzywPb-52" target="_l61PSPyeLfWnxNzywPb-54">
          <mxGeometry relative="1" as="geometry" />
        </mxCell>
        <mxCell id="_l61PSPyeLfWnxNzywPb-52" value="Menunggu Kurir" style="rounded=0;whiteSpace=wrap;html=1;" vertex="1" parent="1">
          <mxGeometry x="530" y="930" width="220" height="30" as="geometry" />
        </mxCell>
        <mxCell id="_l61PSPyeLfWnxNzywPb-65" style="edgeStyle=orthogonalEdgeStyle;rounded=0;orthogonalLoop=1;jettySize=auto;html=1;exitX=0.5;exitY=1;exitDx=0;exitDy=0;entryX=0;entryY=0.5;entryDx=0;entryDy=0;" edge="1" parent="1" source="_l61PSPyeLfWnxNzywPb-53" target="_l61PSPyeLfWnxNzywPb-63">
          <mxGeometry relative="1" as="geometry" />
        </mxCell>
        <mxCell id="_l61PSPyeLfWnxNzywPb-53" value="Menerima Pesanan" style="rounded=0;whiteSpace=wrap;html=1;" vertex="1" parent="1">
          <mxGeometry x="290" y="980" width="220" height="30" as="geometry" />
        </mxCell>
        <mxCell id="_l61PSPyeLfWnxNzywPb-62" style="edgeStyle=orthogonalEdgeStyle;rounded=0;orthogonalLoop=1;jettySize=auto;html=1;exitX=0.5;exitY=1;exitDx=0;exitDy=0;entryX=0.5;entryY=0;entryDx=0;entryDy=0;" edge="1" parent="1" source="_l61PSPyeLfWnxNzywPb-54" target="_l61PSPyeLfWnxNzywPb-55">
          <mxGeometry relative="1" as="geometry" />
        </mxCell>
        <mxCell id="_l61PSPyeLfWnxNzywPb-54" value="Bayar Ke Kurir" style="rounded=0;whiteSpace=wrap;html=1;" vertex="1" parent="1">
          <mxGeometry x="530" y="980" width="220" height="30" as="geometry" />
        </mxCell>
        <mxCell id="_l61PSPyeLfWnxNzywPb-64" style="edgeStyle=orthogonalEdgeStyle;rounded=0;orthogonalLoop=1;jettySize=auto;html=1;exitX=0.5;exitY=1;exitDx=0;exitDy=0;entryX=1;entryY=0.5;entryDx=0;entryDy=0;" edge="1" parent="1" source="_l61PSPyeLfWnxNzywPb-55" target="_l61PSPyeLfWnxNzywPb-63">
          <mxGeometry relative="1" as="geometry" />
        </mxCell>
        <mxCell id="_l61PSPyeLfWnxNzywPb-55" value="Menerima Pesanan" style="rounded=0;whiteSpace=wrap;html=1;" vertex="1" parent="1">
          <mxGeometry x="530" y="1030" width="220" height="30" as="geometry" />
        </mxCell>
        <mxCell id="_l61PSPyeLfWnxNzywPb-63" value="Finish" style="rounded=1;whiteSpace=wrap;html=1;" vertex="1" parent="1">
          <mxGeometry x="460" y="1160" width="120" height="30" as="geometry" />
        </mxCell>
      </root>
    </mxGraphModel>
  </diagram>
</mxfile>
